Coordinates
version=1
nRows=6
nColumns=34
inDegrees=yes

Units are S.I. units (second, meters, Newtons, ...)
If the header above contains a line with 'inDegrees', this indicates whether rotational values are in degrees (yes) or radians (no).

endheader
time	pelvis_tilt	pelvis_list	pelvis_rotation	pelvis_tx	pelvis_ty	pelvis_tz	hip_flexion_r	hip_adduction_r	hip_rotation_r	knee_angle_r	ankle_angle_r	subtalar_angle_r	mtp_angle_r	hip_flexion_l	hip_adduction_l	hip_rotation_l	knee_angle_l	ankle_angle_l	subtalar_angle_l	mtp_angle_l	lumbar_extension	lumbar_bending	lumbar_rotation	arm_flex_r	arm_add_r	arm_rot_r	elbow_flex_r	pro_sup_r	arm_flex_l	arm_add_l	arm_rot_l	elbow_flex_l	pro_sup_l
      1.13333330	     -4.16544633	      2.84469355	      1.64058079	     -0.12089372	      1.30805144	     -0.09456125	      3.23645968	     -3.51547789	      3.38379673	      2.77974415	      8.04888751	     -9.16423625	      0.00000000	      3.47747943	      1.39213745	      2.79766573	      1.95564587	      5.32422430	     -5.30800319	      0.00000000	    -11.31803536	     -0.89741453	     -1.58123698	      5.97925377	     -5.68083507	     15.85488635	     23.31093853	     87.66871685	     11.23721548	     -4.50421612	     20.72253656	     27.17499940	     93.48985342
      1.15000000	     -5.06990493	      2.75062172	      1.51290968	     -0.12173100	      1.30775059	     -0.09300304	      4.66543836	     -3.43660880	      3.29959218	      3.44288480	      8.13714980	     -8.89586829	      0.00000000	      4.69409630	      1.30038796	      2.39842717	      2.22488363	      5.47771418	     -4.97057391	      0.00000000	    -11.16619529	     -0.80568311	     -1.49097706	      5.93465332	     -5.52393371	     12.88394458	     23.26539075	     87.73610445	     10.72333271	     -4.64276545	     19.04322154	     28.35445145	     94.15801362
      1.16666670	     -5.17532216	      2.70360739	      1.45901100	     -0.12280277	      1.30536842	     -0.09267344	      4.78329606	     -3.39226847	      3.23516483	      3.41837104	      8.12574332	     -8.92441873	      0.00000000	      4.79379334	      1.24920172	      2.38071198	      2.16615067	      5.46472961	     -4.97254152	      0.00000000	    -11.55958153	     -0.86715235	     -1.51688262	      5.76739331	     -5.68126984	     12.84594907	     23.18493673	     87.74131713	     10.53330866	     -4.76151840	     19.02335265	     28.24361261	     94.17011630
      1.18333330	     -5.29483795	      2.65901490	      1.44879795	     -0.12339904	      1.30277511	     -0.09235446	      4.94882364	     -3.34101678	      3.18950496	      3.44905936	      8.11854152	     -8.94267630	      0.00000000	      4.92628318	      1.19193876	      2.34167130	      2.15676105	      5.46621119	     -4.99224224	      0.00000000	    -12.00767908	     -0.91582044	     -1.50793257	      5.62613947	     -5.86611712	     12.79687583	     23.10823996	     87.74518806	     10.34016386	     -4.96690733	     18.98533869	     28.11362446	     94.18035220
      1.20000000	     -5.40108054	      2.61304451	      1.28256693	     -0.12133714	      1.30191879	     -0.09288473	      5.13302682	     -3.29999918	      3.11051099	      3.53757097	      8.12377862	     -8.97714046	      0.00000000	      5.05414036	      1.10062062	      2.34663817	      2.20318481	      5.46587798	     -4.98177722	      0.00000000	    -12.44519117	     -0.95093799	     -1.50481515	      5.45787945	     -6.06453122	     12.74269599	     23.02617101	     87.74767545	     10.11512731	     -5.17027988	     18.94559578	     27.97803212	     94.18909253
      1.21666670	     -6.16923722	      2.51721339	      1.07253382	     -0.11943752	      1.30321271	     -0.09212903	      6.42802109	     -3.19366252	      3.09332298	      4.39514098	      8.65848795	     -8.67057549	      0.00000000	      6.06539299	      0.92693054	      1.80218546	      2.60099725	      5.98572502	     -4.45100885	      0.00000000	    -12.18678016	     -0.92835520	     -1.25951569	      4.85500632	     -6.12099566	     10.67793970	     23.79689420	     88.06214143	      9.63752696	     -5.15992525	     17.06226789	     27.67898018	     94.64626854
